<svg width="2056" height="2352" viewBox="0 0 2056 2352" fill="none" xmlns="http://www.w3.org/2000/svg">
<g opacity="0.16">
<path d="M1027.34 1175.48L1984.36 1122.8C1991.06 1212.6 1986.95 1302.63 1972.12 1390.59L1027.34 1175.48Z" fill="#C73D1F"/>
<path d="M1025.85 1173.35L1984.48 1269.96C1981.38 1358.42 1967.51 1445.43 1943.19 1528.78L1025.85 1173.35Z" fill="#FDE099"/>
<path d="M1024.82 1173.14L1968.25 1412.12C1955.14 1498.86 1931.46 1582.55 1897.8 1661.07L1024.82 1173.14Z" fill="#C73D1F"/>
<path d="M1024.57 1174.39L1935.96 1547.75C1912.58 1632.13 1879.02 1711.95 1836.14 1785.19L1024.57 1174.39Z" fill="#FDE099"/>
<path d="M1025.24 1176.64L1888.17 1675.4C1854.33 1756.53 1810.9 1831.7 1759 1899.01L1025.24 1176.64Z" fill="#C73D1F"/>
<path d="M1026.83 1179.36L1825.68 1793.81C1781.4 1870.56 1728.31 1940.07 1667.74 2000.57L1026.83 1179.36Z" fill="#FDE099"/>
<path d="M1029.04 1182.1L1749.58 1901.89C1695.19 1972.91 1632.91 2035.51 1564.31 2088.13L1029.04 1182.1Z" fill="#C73D1F"/>
<path d="M1031.47 1184.34L1661.15 1998.67C1597.41 2062.4 1526.84 2116.69 1451.23 2160.16L1031.47 1184.34Z" fill="#FDE099"/>
<path d="M1033.61 1185.65L1561.9 2083.22C1490.09 2138.02 1412.62 2182.47 1331.46 2215.46L1033.61 1185.65Z" fill="#C73D1F"/>
<path d="M1034.75 1185.77L1453.52 2154.59C1375.5 2198.79 1293.08 2231.89 1208.36 2253.06L1034.75 1185.77Z" fill="#FDE099"/>
<path d="M1034.03 1184.63L1337.84 2211.69C1256.15 2243.77 1171.38 2264.15 1085.68 2272.31L1034.03 1184.63Z" fill="#C73D1F"/>
<path d="M1030.09 1182.37L1216.82 2253.33C1135.02 2272.05 1051.45 2278.63 968.232 2272.9L1030.09 1182.37Z" fill="#FDE099"/>
<path d="M1023.57 1184.41L1103.31 2272.55C1017.4 2277.4 930.949 2269.96 846.146 2250.44L1023.57 1184.41Z" fill="#C73D1F"/>
<path d="M1021.28 1186.26L982.602 2272.74C895.199 2263.98 808.594 2243.01 724.982 2210.37L1021.28 1186.26Z" fill="#FDE099"/>
<path d="M1020.88 1187.47L859.207 2254.26C772.932 2232.43 688.835 2198.68 609.048 2153.85L1020.88 1187.47Z" fill="#C73D1F"/>
<path d="M1021.96 1187.67L736.049 2217.42C653.24 2183.54 573.995 2138.19 500.323 2082.53L1021.96 1187.67Z" fill="#FDE099"/>
<path d="M1024.03 1186.74L616.162 2162.85C538.799 2118.19 466.351 2062.73 400.655 1997.85L1024.03 1186.74Z" fill="#C73D1F"/>
<path d="M1026.56 1184.82L502.604 2091.48C432.247 2037.45 368.085 1973.42 311.745 1901.03L1026.56 1184.82Z" fill="#FDE099"/>
<path d="M1029.01 1182.24L398.288 2004.55C336.065 1942.48 281.207 1871.41 235.103 1793.12L1029.01 1182.24Z" fill="#C73D1F"/>
<path d="M1030.93 1179.47L305.821 1903.54C252.455 1834.63 207.482 1757.84 172.039 1675.13L1030.93 1179.47Z" fill="#FDE099"/>
<path d="M1032 1177.12L227.342 1790.2C183.225 1715.37 148.356 1633.95 123.621 1547.99L1032 1177.12Z" fill="#C73D1F"/>
<path d="M1032.06 1175.86L164.468 1666.47C129.742 1586.31 104.934 1500.96 90.6758 1412.57L1032.06 1175.86Z" fill="#FDE099"/>
<path d="M1031.13 1176.67L118.252 1534.48C92.9073 1449.03 77.9535 1359.89 73.7699 1269.34L1031.13 1176.67Z" fill="#C73D1F"/>
<path d="M1027.95 1177.38L87.8663 1392.39C71.8099 1300.38 66.4126 1206.32 71.8115 1112.6L1027.95 1177.38Z" fill="#FDE099"/>
<path d="M1028.4 1175.95L71.3768 1228.62C64.6795 1138.82 68.7935 1048.8 83.6146 960.838L1028.4 1175.95Z" fill="#C73D1F"/>
<path d="M1029.89 1178.07L71.2644 1081.46C74.355 993.001 88.2345 905.993 112.551 822.645L1029.89 1178.07Z" fill="#FDE099"/>
<path d="M1030.92 1178.29L87.4929 939.303C100.599 852.561 124.281 768.871 157.938 690.355L1030.92 1178.29Z" fill="#C73D1F"/>
<path d="M1031.17 1177.03L119.781 803.676C143.163 719.299 176.717 639.477 219.594 566.235L1031.17 1177.03Z" fill="#FDE099"/>
<path d="M1030.5 1174.78L167.577 676.024C201.416 594.898 244.839 519.728 296.745 452.419L1030.5 1174.78Z" fill="#C73D1F"/>
<path d="M1025.45 1173.26L226.596 558.811C270.874 482.063 323.97 412.556 384.539 352.052L1025.45 1173.26Z" fill="#FDE099"/>
<path d="M1026.7 1169.33L306.16 449.534C360.547 378.523 422.829 315.915 491.425 263.299L1026.7 1169.33Z" fill="#C73D1F"/>
<path d="M1020.81 1167.08L391.125 352.755C454.864 289.026 525.434 234.736 601.047 191.261L1020.81 1167.08Z" fill="#FDE099"/>
<path d="M1022.13 1165.77L493.836 268.2C565.649 213.405 643.116 168.951 724.276 135.964L1022.13 1165.77Z" fill="#C73D1F"/>
<path d="M1020.99 1164.46L602.224 195.638C680.245 151.437 762.661 118.336 847.384 97.173L1020.99 1164.46Z" fill="#FDE099"/>
<path d="M1021.71 1166.79L717.901 139.734C799.585 107.649 884.354 87.2702 970.06 79.1133L1021.71 1166.79Z" fill="#C73D1F"/>
<path d="M1025.65 1169.06L838.919 98.0917C920.723 79.37 1004.29 72.7933 1087.51 78.5282L1025.65 1169.06Z" fill="#FDE099"/>
<path d="M1032.17 1167.02L952.431 78.874C1038.34 74.0262 1124.79 81.4596 1209.59 100.986L1032.17 1167.02Z" fill="#C73D1F"/>
<path d="M1034.46 1165.16L1073.14 78.6849C1160.54 87.4439 1247.14 108.409 1330.76 141.049L1034.46 1165.16Z" fill="#FDE099"/>
<path d="M1034.86 1163.95L1196.53 97.1657C1282.81 118.991 1366.9 152.746 1446.69 197.575L1034.86 1163.95Z" fill="#C73D1F"/>
<path d="M1033.78 1163.76L1319.69 134.005C1402.5 167.888 1481.74 213.234 1555.42 268.893L1033.78 1163.76Z" fill="#FDE099"/>
<path d="M1031.71 1164.69L1439.58 188.575C1516.94 233.229 1589.39 288.698 1655.08 353.574L1031.71 1164.69Z" fill="#C73D1F"/>
<path d="M1029.18 1166.61L1553.13 259.94C1623.49 313.974 1687.65 378.002 1743.99 450.398L1029.18 1166.61Z" fill="#FDE099"/>
<path d="M1026.73 1169.19L1657.45 346.873C1719.67 408.941 1774.53 480.017 1820.64 558.3L1026.73 1169.19Z" fill="#C73D1F"/>
<path d="M1024.81 1171.95L1749.92 447.88C1803.28 516.794 1848.26 593.581 1883.7 676.295L1024.81 1171.95Z" fill="#FDE099"/>
<path d="M1023.74 1174.31L1828.4 561.226C1872.51 636.053 1907.38 717.479 1932.12 803.439L1023.74 1174.31Z" fill="#C73D1F"/>
<path d="M1023.68 1175.56L1891.27 684.957C1926 765.115 1950.8 850.47 1965.06 938.857L1023.68 1175.56Z" fill="#FDE099"/>
<path d="M1024.61 1174.76L1937.49 816.941C1962.83 902.399 1977.78 991.535 1981.97 1082.09L1024.61 1174.76Z" fill="#C73D1F"/>
<path d="M1027.79 1174.04L1967.87 959.035C1983.93 1051.05 1989.33 1145.11 1983.93 1238.82L1027.79 1174.04Z" fill="#FDE099"/>
<path d="M1029.83 1172.93L1982.22 1250.02C1993.54 1188.74 1994.08 1126.84 1983.83 1065.89L1029.83 1172.93Z" fill="#C73D1F"/>
</g>
</svg>
