<svg width="393" height="24" viewBox="0 0 393 24" fill="none" xmlns="http://www.w3.org/2000/svg">
<g clip-path="url(#clip0_271_190)">
<rect width="393" height="24" fill="#C73D1F"/>
<path d="M9 -72.5H24V96.5H9V-72.5Z" fill="#FDE099"/>
<path d="M39 -72.5H54V96.5H39V-72.5Z" fill="#FDE099"/>
<path d="M69 -72.5H84V96.5H69V-72.5Z" fill="#FDE099"/>
<path d="M99 -72.5H114V96.5H99V-72.5Z" fill="#FDE099"/>
<path d="M129 -72.5H144V96.5H129V-72.5Z" fill="#FDE099"/>
<path d="M159 -72.5H174V96.5H159V-72.5Z" fill="#FDE099"/>
<path d="M189 -72.5H204V96.5H189V-72.5Z" fill="#FDE099"/>
<path d="M219 -72.5H234V96.5H219V-72.5Z" fill="#FDE099"/>
<path d="M249 -72.5H264V96.5H249V-72.5Z" fill="#FDE099"/>
<path d="M279 -72.5H294V96.5H279V-72.5Z" fill="#FDE099"/>
<path d="M309 -72.5H324V96.5H309V-72.5Z" fill="#FDE099"/>
<path d="M339 -72.5H354V96.5H339V-72.5Z" fill="#FDE099"/>
<path d="M369 -72.5H384V96.5H369V-72.5Z" fill="#FDE099"/>
</g>
<rect x="0.5" y="0.5" width="392" height="23" stroke="#C23B1E"/>
<defs>
<clipPath id="clip0_271_190">
<rect width="393" height="24" fill="white"/>
</clipPath>
</defs>
</svg>
